<?xml version="1.0" encoding="UTF-8"?>
<svg xmlns="http://www.w3.org/2000/svg" width="610.5984" height="278.64" viewBox="0 0 610.5984 278.64">
  <g fill="#002D56" transform="translate(24.0, 202.92) scale(0.12, -0.12)">
    <path d="M752 12Q682 -25 541 -25Q207 -25 207 322V791H41V1024H207V1245L522 1335V1024H752V791H522V377Q522 217 649 217Q699 217 752 246Z" transform="translate(0, 0)"/>
    <path d="M801 739Q744 770 668 770Q565 770 507.0 694.5Q449 619 449 489V0H133V1024H449V834H453Q528 1042 723 1042Q773 1042 801 1030Z" transform="translate(733.24, 0)"/>
    <path d="M1053 422H385Q401 199 666 199Q835 199 963 279V51Q821 -25 594 -25Q346 -25 209.0 112.5Q72 250 72 496Q72 751 220.0 900.0Q368 1049 584 1049Q808 1049 930.5 916.0Q1053 783 1053 555ZM760 616Q760 836 582 836Q506 836 450.5 773.0Q395 710 383 616Z" transform="translate(1483.04, 0)"/>
    <path d="M1135 -471H819V141H815Q708 -25 500 -25Q307 -25 189.5 109.5Q72 244 72 487Q72 743 201.0 896.0Q330 1049 537 1049Q725 1049 815 905H819V1024H1135ZM825 489V571Q825 671 767.0 739.0Q709 807 618 807Q513 807 453.0 724.5Q393 642 393 496Q393 365 451.5 291.0Q510 217 604 217Q704 217 764.5 292.0Q825 367 825 489Z" transform="translate(2502.4, 0)"/>
    <path d="M1053 422H385Q401 199 666 199Q835 199 963 279V51Q821 -25 594 -25Q346 -25 209.0 112.5Q72 250 72 496Q72 751 220.0 900.0Q368 1049 584 1049Q808 1049 930.5 916.0Q1053 783 1053 555ZM760 616Q760 836 582 836Q506 836 450.5 773.0Q395 710 383 616Z" transform="translate(3668.96, 0)"/>
  </g>
</svg>
