<?xml version="1.0" encoding="UTF-8"?>
<svg xmlns="http://www.w3.org/2000/svg" width="335.66035379812695" height="168.0" viewBox="0 0 335.66035379812695 168.0">
  <g fill="#002D56" transform="translate(24.0, 117.09053069719042) scale(0.062434963579604576, 0.062434963579604576)">
    <path d="M634 1062V838H442V410Q442 280 447.5 258.5Q453 237 472.5 223.0Q492 209 520 209Q559 209 633 236L657 18Q559 -24 435 -24Q359 -24 298.0 1.5Q237 27 208.5 67.5Q180 108 169 177Q160 226 160 375V838H31V1062H160V1273L442 1437V1062Z" transform="translate(0, 0)"/>
    <path d="M416 0H135V1062H396V911Q463 1018 516.5 1052.0Q570 1086 638 1086Q734 1086 823 1033L736 788Q665 834 604 834Q545 834 504.0 801.5Q463 769 439.5 684.0Q416 599 416 328Z" transform="translate(627.44, 0)"/>
    <path d="M762 338 1042 291Q988 137 871.5 56.5Q755 -24 580 -24Q303 -24 170 157Q65 302 65 523Q65 787 203.0 936.5Q341 1086 552 1086Q789 1086 926.0 929.5Q1063 773 1057 450H353Q356 325 421.0 255.5Q486 186 583 186Q649 186 694.0 222.0Q739 258 762 338ZM778 622Q775 744 715.0 807.5Q655 871 569 871Q477 871 417 804Q357 737 358 622Z" transform="translate(1360.68, 0)"/>
    <path d="M841 -404V130Q786 59 704.0 17.5Q622 -24 527 -24Q346 -24 229 112Q91 271 91 543Q91 799 220.5 942.5Q350 1086 542 1086Q648 1086 725.5 1041.0Q803 996 863 905V1062H1122V-404ZM850 544Q850 707 783.5 786.5Q717 866 617 866Q515 866 446.5 785.0Q378 704 378 528Q378 353 444.0 275.5Q510 198 607 198Q704 198 777.0 285.0Q850 372 850 544Z" transform="translate(2408.5600000000004, 0)"/>
    <path d="M762 338 1042 291Q988 137 871.5 56.5Q755 -24 580 -24Q303 -24 170 157Q65 302 65 523Q65 787 203.0 936.5Q341 1086 552 1086Q789 1086 926.0 929.5Q1063 773 1057 450H353Q356 325 421.0 255.5Q486 186 583 186Q649 186 694.0 222.0Q739 258 762 338ZM778 622Q775 744 715.0 807.5Q655 871 569 871Q477 871 417 804Q357 737 358 622Z" transform="translate(3559.4800000000005, 0)"/>
  </g>
</svg>
