<?xml version="1.0" encoding="UTF-8"?>
<!-- Logo Treqe PERFECTO FINAL - cortes delgados, máscara transparente -->
<svg width="3932.9" height="1028.0" 
     viewBox="0 0 3932.9 1028.0" 
     preserveAspectRatio="xMidYMid meet" xmlns="http://www.w3.org/2000/svg">
  <defs>
    <style type="text/css">
      .treqe-blue { fill: #00234E; }
      .treqe-cuts { fill: none; stroke: #FE8999; stroke-width: 4; opacity: 0.5; }
    </style>
    <mask id="letterMask">
      <rect width="100%" height="100%" fill="white"/>
      <rect fill="black" x="388.9" y="383.9" width="8.0" height="40.0"/>
      <rect fill="black" x="917.3" y="383.9" width="8.0" height="40.0"/>
      <rect fill="black" x="1501.2" y="218.7" width="8.0" height="40.0"/>
      <rect fill="black" x="2734.4" y="474.2" width="40.0" height="8.0"/>
      <rect fill="black" x="3226.2" y="218.7" width="8.0" height="40.0"/>
    </mask>
  </defs>
  
  <g transform="translate(146.9 146.9)">
    <!-- Texto con cortes aplicados -->
    <g class="treqe-blue" mask="url(#letterMask)">
      <g transform="translate(0.0,0) scale(0.734, -0.734) translate(0, -1000)"><path d="M655 1118V914H20V1118ZM179 1384H439V315Q439 254 465.0 225.5Q491 197 550 197Q568 197 597.5 201.5Q627 206 645 210L686 9Q643 -4 598.0 -9.5Q553 -15 512 -15Q351 -15 265.0 65.0Q179 145 179 293Z"/></g>
      <g transform="translate(479.5,0) scale(0.734, -0.734) translate(0, -1000)"><path d="M138 0V1118H390V931H402Q432 1028 507.0 1080.5Q582 1133 678 1133Q700 1133 727.0 1131.0Q754 1129 773 1126V887Q757 892 721.0 896.0Q685 900 650 900Q578 900 520.5 869.0Q463 838 430.5 783.5Q398 729 398 658V0Z"/></g>
      <g transform="translate(1025.1,0) scale(0.734, -0.734) translate(0, -1000)"><path d="M632 -23Q463 -23 341.5 48.0Q220 119 154.5 248.0Q89 377 89 552Q89 725 153.5 855.0Q218 985 336.5 1058.5Q455 1132 615 1132Q717 1132 809.5 1099.0Q902 1066 973.5 997.0Q1045 928 1085.5 821.5Q1126 715 1126 568V486H212V663H997L875 611Q875 705 846.0 776.5Q817 848 759.5 888.0Q702 928 616 928Q530 928 470.0 887.5Q410 847 378.5 779.5Q347 712 347 629V507Q347 401 383.0 328.0Q419 255 484.0 218.0Q549 181 635 181Q692 181 738.5 197.5Q785 214 819.0 246.5Q853 279 870 326L1109 277Q1082 187 1017.0 119.5Q952 52 854.5 14.5Q757 -23 632 -23Z"/></g>
      <g transform="translate(1862.9,0) scale(0.734, -0.734) translate(0, -1000)"><path d="M1141 -418H881V177H870Q850 137 811.5 91.0Q773 45 710.0 12.5Q647 -20 550 -20Q418 -20 313.5 47.5Q209 115 149.0 244.0Q89 373 89 557Q89 743 150.5 871.5Q212 1000 316.5 1066.0Q421 1132 549 1132Q649 1132 712.5 1098.5Q776 1065 813.5 1019.0Q851 973 870 933H886V1118H1141ZM621 194Q706 194 765.0 239.5Q824 285 855.0 367.0Q886 449 886 558Q886 667 855.5 747.5Q825 828 765.5 873.0Q706 918 621 918Q533 918 474.0 871.5Q415 825 385.0 743.5Q355 662 355 558Q355 454 385.0 371.5Q415 289 474.5 241.5Q534 194 621 194Z"/></g>
      <g transform="translate(2750.0,0) scale(0.734, -0.734) translate(0, -1000)"><path d="M632 -23Q463 -23 341.5 48.0Q220 119 154.5 248.0Q89 377 89 552Q89 725 153.5 855.0Q218 985 336.5 1058.5Q455 1132 615 1132Q717 1132 809.5 1099.0Q902 1066 973.5 997.0Q1045 928 1085.5 821.5Q1126 715 1126 568V486H212V663H997L875 611Q875 705 846.0 776.5Q817 848 759.5 888.0Q702 928 616 928Q530 928 470.0 887.5Q410 847 378.5 779.5Q347 712 347 629V507Q347 401 383.0 328.0Q419 255 484.0 218.0Q549 181 635 181Q692 181 738.5 197.5Q785 214 819.0 246.5Q853 279 870 326L1109 277Q1082 187 1017.0 119.5Q952 52 854.5 14.5Q757 -23 632 -23Z"/></g>
    </g>
    
    <!-- Cortes visuales de referencia -->
    <g class="treqe-cuts">
      <rect class="treqe-cuts" x="388.9" y="383.9" width="8.0" height="40.0"/>
      <rect class="treqe-cuts" x="917.3" y="383.9" width="8.0" height="40.0"/>
      <rect class="treqe-cuts" x="1501.2" y="218.7" width="8.0" height="40.0"/>
      <rect class="treqe-cuts" x="2734.4" y="474.2" width="40.0" height="8.0"/>
      <rect class="treqe-cuts" x="3226.2" y="218.7" width="8.0" height="40.0"/>
    </g>
  </g>
</svg>